<?xml version="1.0" encoding="UTF-8" standalone="no"?>
<!-- Created with Inkscape (http://www.inkscape.org/) -->

<svg
   xmlns:dc="http://purl.org/dc/elements/1.1/"
   xmlns:cc="http://creativecommons.org/ns#"
   xmlns:rdf="http://www.w3.org/1999/02/22-rdf-syntax-ns#"
   xmlns:svg="http://www.w3.org/2000/svg"
   xmlns="http://www.w3.org/2000/svg"
   xmlns:sodipodi="http://sodipodi.sourceforge.net/DTD/sodipodi-0.dtd"
   xmlns:inkscape="http://www.inkscape.org/namespaces/inkscape"
   width="1059.2716"
   height="776.28577"
   viewBox="0 0 1059.2716 776.28574"
   id="svg4299"
   version="1.1"
   inkscape:version="0.91 r13725"
   sodipodi:docname="demo-fetcher-mediator.svg">
  <defs
     id="defs4301">
    <marker
       inkscape:stockid="Arrow2Lend"
       orient="auto"
       refY="0"
       refX="0"
       id="Arrow2Lend"
       style="overflow:visible"
       inkscape:isstock="true">
      <path
         id="path4222"
         style="fill:#ffffff;fill-opacity:1;fill-rule:evenodd;stroke:#ffffff;stroke-width:0.625;stroke-linejoin:round;stroke-opacity:1"
         d="M 8.7185878,4.0337352 -2.2072895,0.01601326 8.7185884,-4.0017078 c -1.7454984,2.3720609 -1.7354408,5.6174519 -6e-7,8.035443 z"
         transform="matrix(-1.1,0,0,-1.1,-1.1,0)"
         inkscape:connector-curvature="0" />
    </marker>
  </defs>
  <sodipodi:namedview
     id="base"
     pagecolor="#000000"
     bordercolor="#666666"
     borderopacity="1.0"
     inkscape:pageopacity="0"
     inkscape:pageshadow="2"
     inkscape:zoom="0.49497475"
     inkscape:cx="422.51886"
     inkscape:cy="146.21183"
     inkscape:document-units="px"
     inkscape:current-layer="layer2"
     showgrid="false"
     units="px"
     inkscape:window-width="1855"
     inkscape:window-height="1056"
     inkscape:window-x="3905"
     inkscape:window-y="24"
     inkscape:window-maximized="1"
     fit-margin-top="0"
     fit-margin-left="0"
     fit-margin-right="0"
     fit-margin-bottom="0" />
  <metadata
     id="metadata4304">
    <rdf:RDF>
      <cc:Work
         rdf:about="">
        <dc:format>image/svg+xml</dc:format>
        <dc:type
           rdf:resource="http://purl.org/dc/dcmitype/StillImage" />
        <dc:title></dc:title>
      </cc:Work>
    </rdf:RDF>
  </metadata>
  <g
     inkscape:label="Layer 1"
     inkscape:groupmode="layer"
     id="layer1"
     transform="translate(-29.811647,-64.282381)"
     style="display:inline">
    <circle
       style="color:#000000;clip-rule:nonzero;display:inline;overflow:visible;visibility:visible;opacity:1;isolation:auto;mix-blend-mode:normal;color-interpolation:sRGB;color-interpolation-filters:linearRGB;solid-color:#000000;solid-opacity:1;fill:none;fill-opacity:1;fill-rule:evenodd;stroke:#ffffff;stroke-width:12;stroke-linecap:butt;stroke-linejoin:miter;stroke-miterlimit:4;stroke-dasharray:none;stroke-dashoffset:0;stroke-opacity:1;color-rendering:auto;image-rendering:auto;shape-rendering:auto;text-rendering:auto;enable-background:accumulate"
       id="path4307"
       cx="696.87402"
       cy="504.75583"
       r="110.10663" />
    <ellipse
       style="color:#000000;clip-rule:nonzero;display:inline;overflow:visible;visibility:visible;opacity:1;isolation:auto;mix-blend-mode:normal;color-interpolation:sRGB;color-interpolation-filters:linearRGB;solid-color:#000000;solid-opacity:1;fill:none;fill-opacity:1;fill-rule:evenodd;stroke:#ffffff;stroke-width:12;stroke-linecap:butt;stroke-linejoin:miter;stroke-miterlimit:4;stroke-dasharray:none;stroke-dashoffset:0;stroke-opacity:1;color-rendering:auto;image-rendering:auto;shape-rendering:auto;text-rendering:auto;enable-background:accumulate"
       id="path4309"
       cx="702.16168"
       cy="162.63257"
       rx="87.378197"
       ry="20.203051" />
    <path
       style="color:#000000;clip-rule:nonzero;display:inline;overflow:visible;visibility:visible;opacity:1;isolation:auto;mix-blend-mode:normal;color-interpolation:sRGB;color-interpolation-filters:linearRGB;solid-color:#000000;solid-opacity:1;fill:none;fill-opacity:1;fill-rule:evenodd;stroke:#ffffff;stroke-width:12;stroke-linecap:butt;stroke-linejoin:miter;stroke-miterlimit:4;stroke-dasharray:none;stroke-dashoffset:0;stroke-opacity:1;color-rendering:auto;image-rendering:auto;shape-rendering:auto;text-rendering:auto;enable-background:accumulate"
       d="m 614.78339,163.6427 0,125.25891 c 0,0 40.4061,20.20305 90.91373,20.20305 51.51778,0 83.13889,-13.19326 83.13889,-13.19326 l 0.70377,-131.25855"
       id="path4311"
       inkscape:connector-curvature="0"
       sodipodi:nodetypes="ccscc" />
    <path
       style="fill:none;fill-rule:evenodd;stroke:#ffffff;stroke-width:15;stroke-linecap:butt;stroke-linejoin:miter;stroke-miterlimit:4;stroke-dasharray:none;stroke-opacity:1"
       d="m 702.49928,392.13385 2.65921,-79.98769"
       id="path4853"
       inkscape:connector-curvature="0"
       sodipodi:nodetypes="cc" />
    <path
       style="color:#000000;clip-rule:nonzero;display:inline;overflow:visible;visibility:visible;opacity:1;isolation:auto;mix-blend-mode:normal;color-interpolation:sRGB;color-interpolation-filters:linearRGB;solid-color:#000000;solid-opacity:1;fill:none;fill-opacity:1;fill-rule:evenodd;stroke:#ffffff;stroke-width:12;stroke-linecap:butt;stroke-linejoin:miter;stroke-miterlimit:4;stroke-dasharray:none;stroke-dashoffset:0;stroke-opacity:1;color-rendering:auto;image-rendering:auto;shape-rendering:auto;text-rendering:auto;enable-background:accumulate"
       d="m 460.15377,485.28239 126.42858,17.14286"
       id="path4890"
       inkscape:connector-curvature="0" />
    <text
       xml:space="preserve"
       style="font-style:normal;font-weight:normal;font-size:187.97093201px;line-height:125%;font-family:sans-serif;letter-spacing:0px;word-spacing:0px;fill:#000000;fill-opacity:1;stroke:none;stroke-width:1px;stroke-linecap:butt;stroke-linejoin:miter;stroke-opacity:1"
       x="574.26727"
       y="608.29077"
       id="text4963"
       sodipodi:linespacing="125%"
       transform="scale(1.067377,0.93687609)"><tspan
         sodipodi:role="line"
         id="tspan4965"
         x="574.26727"
         y="608.29077"
         style="fill:#ffffff">M</tspan></text>
    <path
       style="color:#000000;clip-rule:nonzero;display:inline;overflow:visible;visibility:visible;opacity:1;isolation:auto;mix-blend-mode:normal;color-interpolation:sRGB;color-interpolation-filters:linearRGB;solid-color:#000000;solid-opacity:1;fill:none;fill-opacity:1;fill-rule:evenodd;stroke:#ffffff;stroke-width:10.38467693;stroke-linecap:butt;stroke-linejoin:miter;stroke-miterlimit:3;stroke-dasharray:none;stroke-dashoffset:0;stroke-opacity:1;marker-end:url(#Arrow2Lend);color-rendering:auto;image-rendering:auto;shape-rendering:auto;text-rendering:auto;enable-background:accumulate"
       d="m 29.840988,489.36444 246.686512,-1.394"
       id="path4181"
       inkscape:connector-curvature="0" />
  </g>
  <g
     inkscape:groupmode="layer"
     id="layer2"
     inkscape:label="Workers"
     style="display:inline"
     transform="translate(-29.811647,-11.920181)">
    <circle
       style="color:#000000;clip-rule:nonzero;display:inline;overflow:visible;visibility:visible;opacity:1;isolation:auto;mix-blend-mode:normal;color-interpolation:sRGB;color-interpolation-filters:linearRGB;solid-color:#000000;solid-opacity:1;fill:none;fill-opacity:1;fill-rule:evenodd;stroke:#ffffff;stroke-width:12;stroke-linecap:butt;stroke-linejoin:miter;stroke-miterlimit:4;stroke-dasharray:none;stroke-dashoffset:0;stroke-opacity:1;color-rendering:auto;image-rendering:auto;shape-rendering:auto;text-rendering:auto;enable-background:accumulate"
       id="path4855"
       cx="388.72522"
       cy="433.63443"
       r="71.428574" />
    <circle
       style="color:#000000;clip-rule:nonzero;display:inline;overflow:visible;visibility:visible;opacity:1;isolation:auto;mix-blend-mode:normal;color-interpolation:sRGB;color-interpolation-filters:linearRGB;solid-color:#000000;solid-opacity:1;fill:none;fill-opacity:1;fill-rule:evenodd;stroke:#ffffff;stroke-width:12;stroke-linecap:butt;stroke-linejoin:miter;stroke-miterlimit:4;stroke-dasharray:none;stroke-dashoffset:0;stroke-opacity:1;color-rendering:auto;image-rendering:auto;shape-rendering:auto;text-rendering:auto;enable-background:accumulate"
       id="path4878"
       cx="323.01093"
       cy="107.92018"
       r="90" />
    <path
       style="fill:none;fill-rule:evenodd;stroke:#ffffff;stroke-width:6;stroke-linecap:butt;stroke-linejoin:miter;stroke-miterlimit:4;stroke-dasharray:none;stroke-opacity:1"
       d="m 264.43949,46.491616 c 0.95238,-0.71429 1.83632,-1.53036 2.85715,-2.14286 0.20416,-0.1225 0.47619,0 0.71428,0 0.2381,0 0.47619,0 0.71429,0 0.59813,0 3.02823,-0.13579 3.57143,0 0.5165,0.12913 0.92349,0.54593 1.42857,0.71429 0.42151,0.14051 3.17233,0 3.57143,0 0.49681,0 3.31311,-0.12916 3.57142,0 0.30117,0.15058 0.41312,0.5637 0.71429,0.71428 0.30506,0.15253 3.28906,0 3.57143,0 0.23809,0 0.47619,0 0.71428,0 0.2381,0 0.54593,-0.16835 0.71429,0 1.41753,1.41754 -3.38267,0.22577 1.42857,1.42858 0.55726,0.13931 3.45202,0 4.28571,0 0.47619,0 0.95238,0 1.42857,0 0.2381,0 0.50133,-0.10648 0.71429,0 0.30117,0.15058 0.41312,0.5637 0.71428,0.71428 0.42592,0.21296 1.09186,-0.33671 1.42858,0 0.16835,0.16836 -0.16836,0.54593 0,0.71429 0.16835,0.16836 0.54592,-0.16836 0.71428,0 0.33672,0.33672 -0.21296,1.00265 0,1.42857 0.31655,0.6331 1.70938,1.49263 2.14286,2.14286 0.29532,0.44298 0.41896,0.98559 0.71428,1.42857 0.18678,0.28016 0.56371,0.41311 0.71429,0.71428 0.10648,0.21296 0,0.47619 0,0.71429 0,0.2381 0,0.47619 0,0.71429 0,0.71428 0,1.42857 0,2.14285 0,0.2381 0.16836,0.54593 0,0.71429 -0.16836,0.16836 -0.60781,-0.21296 -0.71429,0 -0.13041,0.26082 0.13903,3.4324 0,3.57143 -0.16835,0.16836 -0.54592,-0.16836 -0.71428,0 -0.16836,0.16836 0.16836,0.54592 0,0.71428 -0.33672,0.33672 -1.09186,-0.33671 -1.42857,0 -0.16836,0.16836 0.21296,0.60781 0,0.71429 -0.42592,0.21296 -0.97682,-0.15059 -1.42857,0 -1.01016,0.33672 -1.84699,1.09185 -2.85715,1.42857 -0.42479,0.1416 -3.41215,-0.15928 -3.57143,0 -0.16835,0.16836 0.10648,0.50133 0,0.71429 -1.48634,2.97268 0.0493,-0.7636 -1.42857,0.71428 -0.16836,0.16836 0.16836,0.54593 0,0.71429 -0.33671,0.33672 -1.09185,-0.33672 -1.42857,0 -0.16836,0.16836 0.16836,0.54592 0,0.71428 -0.16836,0.16836 -0.47619,0 -0.71428,0 -0.2381,0 -0.47619,0 -0.71429,0 -1.42857,0 -2.85714,0 -4.28571,0 -0.2381,0 -0.47619,0 -0.71429,0 -0.23809,0 -0.50132,-0.10648 -0.71428,0 -0.30117,0.15059 -0.41312,0.5637 -0.71429,0.71429 -0.42592,0.21296 -1.00265,-0.21296 -1.42857,0 -0.30117,0.15058 -0.41312,0.5637 -0.71428,0.71428 -0.42592,0.21296 -1.09186,-0.33671 -1.42858,0 -0.16836,0.16836 0.16836,0.54593 0,0.71429 -0.35714,0.35714 -1.78571,-0.35714 -2.14285,0 -0.16836,0.16836 0.10648,0.50133 0,0.71429 -0.30117,0.60233 -1.12741,0.82623 -1.42857,1.42857 -0.21296,0.42592 0.33671,1.09185 0,1.42857 -0.16836,0.16836 -0.54593,-0.16836 -0.71429,0 -0.16836,0.16836 0,0.47619 0,0.71428 0,1.42858 0,2.85715 0,4.28572 0,0.23809 -0.10648,0.50133 0,0.71428 1.48634,2.97269 -0.0493,-0.76359 1.42857,0.71429 0.16836,0.16836 -0.16836,0.54593 0,0.71429 0.023,0.023 1.96962,0 2.14286,0 0.23809,0 0.47619,0 0.71428,0 0.2381,0 0.54593,-0.16836 0.71429,0 0.16836,0.16835 -0.16836,0.54592 0,0.71428 0.16836,0.16836 0.47619,0 0.71429,0 2.14285,0 4.28571,0 6.42857,0 0.23809,0 0.47619,0 0.71428,0 0.2381,0 0.50133,-0.10648 0.71429,0 0.58079,0.2904 0.59101,1.13307 1.42857,0.71429 0.30117,-0.15059 0.43412,-0.52751 0.71428,-0.71429 0.44298,-0.29532 0.98559,-0.41896 1.42857,-0.71428 0.28017,-0.18678 0.41312,-0.5637 0.71429,-0.71429 0.28321,-0.1416 1.99683,0.14603 2.14286,0 0.16835,-0.16836 -0.16836,-0.54593 0,-0.71429 0.33671,-0.33671 1.09185,0.33672 1.42857,0 0.16836,-0.16835 -0.16836,-0.54592 0,-0.71428 0.33671,-0.33672 1.00265,0.21296 1.42857,0 2.97268,-1.48634 -0.7636,0.0493 0.71428,-1.42857 0.16836,-0.16836 0.54593,0.16836 0.71429,0 0.35714,-0.35715 -0.35714,-1.78572 0,-2.14286 0.16836,-0.16836 0.50133,0.10648 0.71429,0 2.97268,-1.48634 -0.7636,0.0493 0.71428,-1.42857 0.16836,-0.16836 0.54593,0.16836 0.71429,0 0.19544,-0.19545 -0.19375,-2.46965 0,-2.85714 0.15058,-0.30117 0.5637,-0.41312 0.71428,-0.71429 0.10648,-0.21296 -0.10648,-0.50133 0,-0.71429 0.15059,-0.30116 0.5637,-0.41311 0.71429,-0.71428 0.10648,-0.21296 -0.16836,-0.54593 0,-0.71429 0.16836,-0.16836 0.54593,0.16836 0.71428,0 0.16836,-0.16836 -0.16835,-0.54592 0,-0.71428 0.16836,-0.16836 0.50133,0.10648 0.71429,0 0.85714,-0.42857 1.28571,-1.71429 2.14286,-2.14286 0.21738,-0.10869 1.82117,0 2.14285,0 0.32169,0 1.92548,0.10869 2.14286,0 0.30117,-0.15058 0.41312,-0.5637 0.71429,-0.71429 0.42591,-0.21295 1.00265,0.21296 1.42857,0 2.97268,-1.48634 -0.7636,0.0493 0.71428,-1.42857 0.16836,-0.16836 0.54593,0.16836 0.71429,0 0.16836,-0.16836 -0.16836,-0.54592 0,-0.71428 0.14603,-0.14603 1.85965,0.1416 2.14286,0 0.30117,-0.15059 0.41311,-0.5637 0.71428,-0.71429 0.57143,-0.28571 1.57143,0.28572 2.14286,0 0.21296,-0.10648 -0.16836,-0.54593 0,-0.71428 0.23546,-0.23546 2.34025,0.17229 2.85714,0 0.31944,-0.10648 0.41312,-0.56371 0.71429,-0.71429 0.10619,-0.0531 2.7003,-0.0523 2.85714,0 0.50508,0.16836 0.9235,0.54593 1.42857,0.71429 1.07143,0.35714 0.71429,-0.71429 2.14286,0 0.21296,0.10648 -0.16836,0.54592 0,0.71428 0.19544,0.19545 2.46965,-0.19374 2.85714,0 2.97269,1.48634 -0.76359,-0.0493 0.71429,1.42857 0.33672,0.33672 1.09185,-0.33671 1.42857,0 0.023,0.023 0,1.96963 0,2.14286 0,0.49681 0.12915,3.31312 0,3.57143 -0.30117,0.60234 -1.1274,0.82623 -1.42857,1.42857 -0.10648,0.21296 0.10648,0.50133 0,0.71429 -0.15059,0.30117 -0.5637,0.41311 -0.71429,0.71428 -0.10648,0.21296 0.16836,0.54593 0,0.71429 -0.16836,0.16836 -0.54592,-0.16836 -0.71428,0 -0.16836,0.16836 0.16836,0.54592 0,0.71428 -0.16836,0.16836 -0.54593,-0.16836 -0.71429,0 -0.16836,0.16836 0.16836,0.54593 0,0.71429 -0.16836,0.16836 -0.54593,-0.16836 -0.71428,0 -0.16836,0.16836 0.10648,0.50133 0,0.71428 -0.15059,0.30117 -0.56371,0.41312 -0.71429,0.71429 -0.10648,0.21296 0.16836,0.54593 0,0.71429 -0.16836,0.16835 -0.54593,-0.16836 -0.71429,0 -0.16835,0.16835 0.16836,0.54592 0,0.71428 -0.16835,0.16836 -0.54592,-0.16836 -0.71428,0 -0.16836,0.16836 0.16836,0.54593 0,0.71429 -0.16836,0.16836 -0.50133,-0.10648 -0.71429,0 -0.30117,0.15058 -0.41311,0.5637 -0.71428,0.71428 -0.21296,0.10648 -0.54593,-0.16836 -0.71429,0 -0.16836,0.16836 0.16836,0.54593 0,0.71429 -0.16836,0.16836 -0.54593,-0.16836 -0.71428,0 -0.16836,0.16836 0.16835,0.54593 0,0.71428 -1.47789,1.47789 0.0578,-2.2584 -1.42858,0.71429 0,1.90476 0.2381,-0.23809 -0.71428,0.71429 -0.16836,0.16835 0.16836,0.54592 0,0.71428 -0.33672,0.33672 -1.09186,-0.33672 -1.42857,0 -0.33672,0.33672 0.21296,1.00266 0,1.42857 -1.48635,2.97269 0.0493,-0.76359 -1.42857,0.71429 -0.16836,0.16836 0.10648,0.50133 0,0.71428 -0.15059,0.30117 -0.47619,0.4762 -0.71429,0.71429 -0.2381,0.2381 -0.41312,0.5637 -0.71429,0.71429 -0.42591,0.21296 -1.09185,-0.33672 -1.42857,0 -0.16836,0.16835 0.16836,0.54592 0,0.71428 -0.16836,0.16836 -0.50132,-0.10648 -0.71428,0 -0.30117,0.15059 -0.41312,0.5637 -0.71429,0.71429 -0.21296,0.10648 -0.54593,-0.16836 -0.71428,0 -1.47789,1.47788 2.2584,-0.0578 -0.71429,1.42857 -0.42592,0.21296 -1.21561,-0.42592 -1.42857,0 -0.21296,0.42592 0.21296,1.00265 0,1.42857 -0.14825,0.2965 -1.89353,-0.24933 -2.14286,0 -0.37646,0.37646 -0.33782,1.05211 -0.71428,1.42857 -0.16836,0.16836 -0.50133,-0.10648 -0.71429,0 -1.57932,0.78966 -0.22166,0.44332 -0.71429,1.42857 -0.30116,0.60234 -1.1274,0.82624 -1.42857,1.42857 -0.21296,0.42592 0.21296,1.00266 0,1.42858 -0.30117,0.60233 -1.1274,0.82623 -1.42857,1.42857 -1.051,2.102 1.6547,-0.94042 -0.71428,1.42857 -0.2381,0.23809 -0.47619,0.47619 -0.71429,0.71428 -0.2381,0.2381 -0.60781,0.39485 -0.71429,0.714294 -0.17229,0.51689 0.23546,2.62169 0,2.85714 -0.16835,0.16836 -0.54592,-0.16836 -0.71428,0 -0.16836,0.16836 0,0.47619 0,0.71429 0,0.23809 -0.16836,0.54593 0,0.71428 0.16836,0.16836 0.50133,-0.10647 0.71428,0 0.30117,0.15059 0.41312,0.56371 0.71429,0.71429 0.21296,0.10648 0.54593,-0.16836 0.71429,0 0.16835,0.16836 -0.16836,0.54593 0,0.71429 0.35714,0.35714 1.78571,-0.35715 2.14285,0 0.16836,0.16835 -0.16836,0.54592 0,0.71428 0.16836,0.16836 0.50133,-0.10648 0.71429,0 0.30117,0.15059 0.41312,0.5637 0.71428,0.71429 0.21296,0.10648 0.54593,-0.16836 0.71429,0 0.16836,0.16836 -0.16836,0.54592 0,0.71428 0.33672,0.33672 1.09185,-0.33671 1.42857,0 1.47788,1.47789 -2.2584,-0.0578 0.71429,1.42857 0.49338,0.2467 3.3207,-0.25072 3.57143,0 0.16835,0.16836 -0.16836,0.54593 0,0.71429 0.16835,0.16836 0.54592,-0.16836 0.71428,0 1.47788,1.47788 -2.2584,-0.0578 0.71429,1.42857 0.42591,0.21296 1.09185,-0.33672 1.42857,0 0.16836,0.16836 -0.16836,0.54593 0,0.71429 0.16836,0.16836 0.54593,-0.16836 0.71428,0 0.35715,0.35714 -0.35714,1.78571 0,2.14285 1.47789,1.47789 -0.0578,-2.2584 1.42858,0.71429 0.21295,0.42592 -0.33672,1.09185 0,1.42857 0.16835,0.16836 0.54592,-0.16836 0.71428,0 0.35714,0.35714 -0.35714,1.78572 0,2.14286 0.16836,0.16836 0.54593,-0.16836 0.71429,0 0.16836,0.16836 -0.16836,0.54593 0,0.71428 0.16836,0.16836 0.54592,-0.16835 0.71428,0 0.16836,0.16836 0,0.4762 0,0.71429 0,0.2381 0,0.47619 0,0.71429 0,0.32168 0.10869,1.92547 0,2.14285 -0.15058,0.30117 -0.5637,0.41312 -0.71428,0.71429 -0.21296,0.42592 0.33671,1.09185 0,1.42857 -0.16836,0.16836 -0.54593,-0.16836 -0.71429,0 -0.16836,0.16836 0.10648,0.50133 0,0.71429 -1.52079,3.04158 0.0922,-1.61302 -1.42857,1.42857 -0.10648,0.21296 0.16836,0.54592 0,0.71428 -0.16836,0.16836 -0.50133,-0.10648 -0.71429,0 -1.01274,0.50638 -0.41582,0.9222 -1.42857,1.42857 -0.38749,0.19375 -2.6617,-0.19544 -2.85714,0 -0.16836,0.16836 0.16836,0.54593 0,0.71429 -0.16836,0.16836 -0.47619,0 -0.71429,0 -0.23809,0 -0.47619,0 -0.71428,0 -1.42857,0 -2.85714,0 -4.28572,0 -0.23809,0 -0.47619,0 -0.71428,0 -0.2381,0 -0.50133,0.10648 -0.71429,0 -1.57932,-0.78966 -0.22166,-0.44332 -0.71428,-1.42857 -0.0684,-0.13673 -2.72042,-2.78878 -2.85715,-2.85714 -0.21295,-0.10648 -0.54592,0.16836 -0.71428,0 -0.16836,-0.16836 0.16836,-0.54593 0,-0.71429 -0.16836,-0.16836 -0.47619,0 -0.71429,0 -0.23809,0 -0.47619,0 -0.71428,0 -0.2381,0 -0.47619,0 -0.71429,0 -0.23809,0 -0.50133,0.10648 -0.71428,0 -0.30117,-0.15058 -0.41312,-0.5637 -0.71429,-0.71429 -0.21296,-0.10647 -0.54593,0.16836 -0.71429,0 -0.16835,-0.16835 0.10648,-0.50132 0,-0.71428 -1.48634,-2.97269 0.0493,0.7636 -1.42857,-0.71429 -0.16836,-0.16836 0.16836,-0.54592 0,-0.71428 -0.33671,-0.33672 -1.09185,0.33672 -1.42857,0 -0.16836,-0.16836 0.16836,-0.54593 0,-0.71429 -0.0714,-0.0714 -2.07143,-0.0714 -2.14286,0 -0.16835,0.16836 0.10648,0.50133 0,0.71429 -0.15058,0.30117 -0.5637,0.41311 -0.71428,0.71428 -0.10648,0.21296 0.16836,0.54593 0,0.71429 -0.16836,0.16836 -0.54593,-0.16836 -0.71429,0 -0.33671,0.33672 0.33672,1.09185 0,1.42857 -0.16836,0.16836 -0.54592,-0.16836 -0.71428,0 -0.16836,0.16836 0,0.47619 0,0.71429 0,1.66666 0,3.33333 0,5 0,0.17323 -0.023,2.11988 0,2.14285 0.16836,0.16836 0.54592,-0.16836 0.71428,0 0.16836,0.16836 -0.10648,0.50133 0,0.71429 0.15059,0.30117 0.5637,0.41312 0.71429,0.71428 0.10648,0.21296 -0.16836,0.54593 0,0.71429 0.16836,0.16836 0.54593,-0.16836 0.71428,0 0.16836,0.16836 -0.10648,0.50133 0,0.71429 0.15059,0.30117 0.47619,0.47619 0.71429,0.71428 0.2381,0.2381 0.41312,0.5637 0.71429,0.71429 0.21295,0.10648 0.50132,-0.10648 0.71428,0 0.30117,0.15058 0.41312,0.5637 0.71429,0.71428 0.21296,0.10648 0.50132,-0.10648 0.71428,0 0.30117,0.15059 0.41312,0.5637 0.71429,0.71429 0.21296,0.10648 0.50133,-0.10648 0.71428,0 0.30117,0.15058 0.41312,0.5637 0.71429,0.71428 0.21296,0.10648 0.50133,-0.10647 0.71429,0 0.30117,0.15059 0.41311,0.56371 0.71428,0.71429 0.18468,0.0923 3.77943,0 4.28572,0 0.49681,0 3.31311,-0.12915 3.57142,0 0.30117,0.15059 0.41312,0.5637 0.71429,0.71429 0.0374,0.0187 2.10549,0.0187 2.14286,0 0.30117,-0.15059 0.39484,-0.60781 0.71428,-0.71429 0.45176,-0.15058 0.97682,0.15059 1.42857,0 0.31944,-0.10648 0.41312,-0.5637 0.71429,-0.71429 0.21296,-0.10647 0.50133,0.10648 0.71429,0 0.30117,-0.15058 0.41311,-0.5637 0.71428,-0.71428 0.45062,-0.22531 3.12081,0.22531 3.57143,0 0.30117,-0.15059 0.39485,-0.60781 0.71429,-0.71429 0.45175,-0.15058 0.95238,0 1.42857,0 0.71428,0 1.42857,0 2.14285,0 2.85715,0 5.71429,0 8.57143,0 0.32169,0 1.92548,0.10869 2.14286,0 0.30117,-0.15058 0.41312,-0.5637 0.71429,-0.71428 0.18467,-0.0923 3.77942,0 4.28571,0 0.17323,0 2.11989,-0.023 2.14286,0 0.33671,0.33672 -0.33672,1.09185 0,1.42857 0.16836,0.16836 0.54592,-0.16836 0.71428,0 0.16836,0.16836 0,0.47619 0,0.71428 0,0.71429 0,1.42858 0,2.14286 0,0.50629 0.0923,4.10104 0,4.28572 -0.30117,0.60233 -1.1274,0.82623 -1.42857,1.42857 -0.10648,0.21296 0.16836,0.54592 0,0.71428 -0.16836,0.16836 -0.54593,-0.16836 -0.71428,0 -0.16836,0.16836 0.16835,0.54593 0,0.71429 -0.16836,0.16836 -0.54593,-0.16836 -0.71429,0 -0.16836,0.16836 0.16836,0.54593 0,0.71428 -0.22075,0.22075 -3.35245,-0.21897 -3.57143,0 -0.16836,0.16836 0.10648,0.50133 0,0.71429 -0.15058,0.30117 -0.47619,0.47619 -0.71428,0.71429 -0.2381,0.23809 -0.41312,0.5637 -0.71429,0.71428 -0.21296,0.10648 -0.50133,-0.10648 -0.71429,0 -2.97268,1.48635 0.7636,-0.0493 -0.71428,1.42857 -0.16836,0.16836 -0.54593,-0.16836 -0.71429,0 -0.16836,0.16836 0.16836,0.54593 0,0.71429 -0.35714,0.35714 -1.78571,-0.35714 -2.14285,0 -0.16836,0.16836 0.16835,0.54593 0,0.71428 -0.33672,0.33672 -1.09186,-0.33671 -1.42858,0 -0.16835,0.16836 0.10648,0.50133 0,0.71429 -0.15058,0.30117 -0.5637,0.41312 -0.71428,0.71429 -0.10648,0.21296 0.16836,0.54592 0,0.71428 -0.16836,0.16836 -0.54593,-0.16836 -0.71429,0 -0.33671,0.33672 0.21296,1.00266 0,1.42857 -0.30117,0.60234 -1.1274,0.82624 -1.42857,1.42857 -0.28571,0.57143 0.28572,1.57143 0,2.14286 -0.15058,0.30117 -0.5637,0.41312 -0.71428,0.71429 -0.19375,0.38749 0.19544,2.6617 0,2.85714 -0.16836,0.16836 -0.54593,-0.16836 -0.71429,0 -0.14603,0.14603 0.1416,1.85965 0,2.14286 -0.88264,1.76529 -0.71429,-0.24656 -0.71429,1.42857 0,3.57143 0,7.14286 0,10.71428 0,0.17324 -0.023,2.11989 0,2.14286 0.16836,0.16836 0.54593,-0.16836 0.71429,0 0.16836,0.16836 -0.10648,0.50133 0,0.71429 0.15058,0.30117 0.5637,0.41311 0.71429,0.71428 0.10648,0.21296 -0.10648,0.50133 0,0.71429 0.15058,0.30117 0.5637,0.41312 0.71428,0.71428 0.21296,0.42592 -0.21296,1.00266 0,1.42858 0.15059,0.30117 0.5637,0.41311 0.71429,0.71428 0.10648,0.21296 -0.16836,0.54593 0,0.71429 0.16836,0.16836 0.54592,-0.16836 0.71428,0 0.33672,0.33672 -0.33671,1.09185 0,1.42857 0.16836,0.16836 0.54593,-0.16836 0.71429,0 0.33672,0.33672 -0.33672,1.09185 0,1.42857 0.16836,0.16836 0.54593,-0.16836 0.71428,0 0.16836,0.16836 -0.10647,0.50133 0,0.71429 0.15059,0.30117 0.56371,0.41311 0.71429,0.71428 0.10648,0.21296 0,0.47619 0,0.71429 0.2381,0.23809 0.5637,0.41311 0.71429,0.71428 0.10648,0.21296 0,0.47619 0,0.71429 0,0.23809 0.23809,0.71428 0,0.71428 -0.2381,0 0,-0.47619 0,-0.71428"
       id="path4882"
       inkscape:connector-curvature="0" />
    <path
       style="fill:none;fill-rule:evenodd;stroke:#ffffff;stroke-width:5;stroke-linecap:butt;stroke-linejoin:miter;stroke-miterlimit:4;stroke-dasharray:none;stroke-opacity:1"
       d="m 403.01092,81.491616 c -0.47976,-0.11994 -3.25275,-1.05861 -4.28572,-0.71428 -0.31944,0.10648 -0.41311,0.5637 -0.71428,0.71428 -0.44244,0.22122 -2.6458,-0.21134 -2.85715,0 -0.16835,0.16836 0.21296,0.60781 0,0.71429 -0.42591,0.21296 -0.95238,0 -1.42857,0 -1.19047,0 -2.38095,0 -3.57143,0 -0.23809,0 -0.50132,-0.10648 -0.71428,0 -2.17826,1.08913 1.30639,0.56626 -2.14286,1.42857 -0.52635,0.13159 -3.15294,-0.20924 -3.57143,0 -0.60234,0.30117 -0.82623,1.1274 -1.42857,1.42857 -0.21296,0.10648 -0.54593,-0.16836 -0.71428,0 -0.16836,0.16836 0.16835,0.54593 0,0.71429 -0.25073,0.25072 -3.07805,-0.24669 -3.57143,0 -0.30117,0.15058 -0.41312,0.5637 -0.71429,0.71428 -0.42592,0.21296 -1.00265,-0.21296 -1.42857,0 -0.30117,0.15059 -0.41312,0.5637 -0.71429,0.71429 -0.21295,0.10648 -0.54592,-0.16836 -0.71428,0 -0.33672,0.33672 0.33672,1.09185 0,1.42857 -0.16836,0.16836 -0.48841,-0.0753 -0.71429,0 -0.50507,0.16836 -0.92349,0.54593 -1.42857,0.71428 -0.22588,0.0753 -0.48841,-0.0753 -0.71428,0 -0.50508,0.16836 -0.9235,0.54593 -1.42858,0.71429 -0.27794,0.0927 -2.032,-0.11085 -2.14285,0 -0.16836,0.16836 0.16836,0.54593 0,0.71429 -0.33672,0.33671 -1.09186,-0.33672 -1.42857,0 -0.33672,0.33671 0.21295,1.00265 0,1.42857 -0.30117,0.60234 -1.12741,0.82623 -1.42858,1.42857 -0.10647,0.21296 0.0753,0.48841 0,0.71428 -0.16835,0.50508 -0.54592,0.9235 -0.71428,1.42858 -0.253,0.759 0.253,2.09813 0,2.85714 -0.10648,0.31944 -0.5637,0.41312 -0.71429,0.71428 -0.10648,0.21296 0.0753,0.48841 0,0.714294 -0.16836,0.50508 -0.54592,0.9235 -0.71428,1.42857 -0.19165,0.57493 0.22822,2.4007 0,2.85714 -0.15059,0.30117 -0.5637,0.41312 -0.71429,0.71429 -0.10592,0.21185 0,3.59484 0,4.28571 0,2.61905 0,5.2381 0,7.85715 0,0.37351 -0.0939,2.66933 0,2.85714 0.72232,1.44463 1.65763,0.22905 2.14286,0.71429 0.16836,0.16836 -0.21296,0.6078 0,0.71428 0.42592,0.21296 0.95238,0 1.42857,0 0.47619,0 0.95238,0 1.42857,0 0.2381,0 0.50133,0.10648 0.71429,0 0.30117,-0.15058 0.41311,-0.5637 0.71428,-0.71428 0.0609,-0.0305 2.79626,-0.0305 2.85715,0 2.97268,1.48634 -0.7636,-0.0493 0.71428,1.42857 0.16836,0.16836 0.50133,-0.10648 0.71429,0 0.30117,0.15058 0.41311,0.5637 0.71428,0.71428 0.42592,0.21296 1.09186,-0.33671 1.42857,0 0.16836,0.16836 0,0.47619 0,0.71429 0.47619,0 1.00266,-0.21296 1.42858,0 0.21295,0.10648 -0.21296,0.60781 0,0.71428 0.44894,0.22448 2.40819,-0.22447 2.85714,0 0.30117,0.15059 0.41312,0.56371 0.71428,0.71429 0.21296,0.10648 0.47619,0 0.71429,0 0.2381,0 0.47619,0 0.71429,0 1.19047,0 2.38095,0 3.57142,0 0.2381,0 0.50133,-0.10648 0.71429,0 0.30117,0.15059 0.41312,0.5637 0.71429,0.71429 0.42591,0.21296 1.09185,-0.33672 1.42857,0 0.16836,0.16836 -0.10648,0.50132 0,0.71428 0.15058,0.30117 0.5637,0.41312 0.71428,0.71429 0.10648,0.21296 -0.16836,0.54592 0,0.71428 0.16836,0.16836 0.50133,-0.10648 0.71429,0 2.97268,1.48635 -0.7636,-0.0493 0.71428,1.42857 0.16836,0.16836 0.50133,-0.10647 0.71429,0 1.57933,0.78967 0.22166,0.44332 0.71429,1.42858 0.42857,0.85714 1.71428,1.28571 2.14285,2.14285 0.10648,0.21296 0,0.47619 0,0.71429 0,0.26231 -0.0287,2.8284 0,2.85714 0.16836,0.16836 0.54593,-0.16836 0.71429,0 0.0574,0.0574 0,3.00921 0,3.57143 0,3.33333 0,6.66667 0,10 0,0.2381 0,0.47619 0,0.71429 0,0.23809 0.16836,0.54592 0,0.71428 -0.16836,0.16836 -0.54593,-0.16836 -0.71429,0 -0.14602,0.14603 0.14161,1.85965 0,2.14286 -0.15058,0.30117 -0.5637,0.41312 -0.71428,0.71428 -0.0923,0.18468 0,3.77943 0,4.28572 0,0.23809 0.16836,0.54593 0,0.71428 -0.16836,0.16836 -0.47619,0 -0.71429,0"
       id="path4884"
       inkscape:connector-curvature="0" />
    <path
       style="fill:none;fill-rule:evenodd;stroke:#ffffff;stroke-width:5;stroke-linecap:butt;stroke-linejoin:miter;stroke-miterlimit:4;stroke-dasharray:none;stroke-opacity:1"
       d="m 358.01092,32.205906 c -0.95238,1.19047 -1.90476,2.38095 -2.85715,3.57142 -0.23809,0 -0.50132,-0.10647 -0.71428,0 -0.30117,0.15059 -0.41312,0.56371 -0.71429,0.71429 -0.21296,0.10648 -0.54592,-0.16836 -0.71428,0 -0.16836,0.16836 0.16836,0.54593 0,0.71429 -0.16836,0.16836 -0.50133,-0.10648 -0.71429,0 -0.30117,0.15058 -0.41311,0.5637 -0.71428,0.71428 -0.98526,0.49263 -0.63891,-0.86504 -1.42858,0.71429 -0.10647,0.21296 0.10648,0.50133 0,0.71428 -0.15058,0.30117 -0.5637,0.41312 -0.71428,0.71429 -0.10648,0.21296 0.10648,0.50133 0,0.71429 -0.15059,0.30116 -0.5637,0.41311 -0.71429,0.71428 -0.0939,0.18782 0,2.48363 0,2.85714 0,1.42858 0,2.85715 0,4.28572 0,0.32168 -0.10869,1.92547 0,2.14286 0.15059,0.30116 0.5637,0.41311 0.71429,0.71428 0.21296,0.42592 -0.33672,1.09186 0,1.42857 0.16836,0.16836 0.54593,-0.16836 0.71428,0 1.47789,1.47789 -2.2584,-0.0578 0.71429,1.42857 0.21296,0.10648 0.54593,-0.16835 0.71429,0 0.16835,0.16836 -0.10648,0.50133 0,0.71429 0.15058,0.30117 0.5637,0.41312 0.71428,0.71429 0.10648,0.21295 -0.16836,0.54592 0,0.71428 0.2381,0 0.47619,0 0.71429,0 0.23809,0 0.54592,-0.16836 0.71428,0 0.16836,0.16836 -0.16836,0.54593 0,0.71429 0.35715,0.35714 1.78572,-0.35715 2.14286,0 0.16836,0.16836 -0.16836,0.54592 0,0.71428 0.14603,0.14603 1.85965,-0.1416 2.14286,0 0.30117,0.15059 0.41311,0.5637 0.71428,0.71429 0.21738,0.10869 1.82118,0 2.14286,0 2.14286,0 4.28571,0 6.42857,0 0.63837,0 3.34381,0.11381 3.57143,0 0.30117,-0.15059 0.39485,-0.60781 0.71429,-0.71429 0.45175,-0.15058 0.95238,0 1.42857,0 0.23809,0 0.50132,0.10648 0.71428,0 0.60234,-0.30117 0.7897,-1.21561 1.42857,-1.42857 0.39502,-0.13167 3.5664,0 4.28572,0 0.23809,0 0.47619,0 0.71428,0 0.2381,0 0.50133,0.10648 0.71429,0 0.30117,-0.15058 0.41312,-0.5637 0.71429,-0.71428 0.57142,-0.28572 1.57142,0.28571 2.14285,0 1.57933,-0.78967 0.22166,-0.44332 0.71429,-1.42858 1.48634,-2.97268 -0.0493,0.7636 1.42857,-0.71428 0.16836,-0.16836 -0.16836,-0.54593 0,-0.71429 0.16836,-0.16836 0.54593,0.16836 0.71429,0 0.16835,-0.16836 -0.10648,-0.50133 0,-0.71428 1.48634,-2.97269 -0.0493,0.76359 1.42857,-0.71429 0.95238,-0.95238 -1.19048,-0.71428 0.71428,-0.71428"
       id="path4886"
       inkscape:connector-curvature="0" />
    <path
       style="color:#000000;clip-rule:nonzero;display:inline;overflow:visible;visibility:visible;opacity:1;isolation:auto;mix-blend-mode:normal;color-interpolation:sRGB;color-interpolation-filters:linearRGB;solid-color:#000000;solid-opacity:1;fill:none;fill-opacity:1;fill-rule:evenodd;stroke:#ffffff;stroke-width:12;stroke-linecap:butt;stroke-linejoin:miter;stroke-miterlimit:4;stroke-dasharray:none;stroke-dashoffset:0;stroke-opacity:1;color-rendering:auto;image-rendering:auto;shape-rendering:auto;text-rendering:auto;enable-background:accumulate"
       d="m 380.15377,361.49162 -40,-165.71428"
       id="path4888"
       inkscape:connector-curvature="0" />
    <text
       xml:space="preserve"
       style="font-style:normal;font-weight:normal;font-size:95.59552002px;line-height:125%;font-family:sans-serif;letter-spacing:0px;word-spacing:0px;display:inline;fill:#ffffff;fill-opacity:1;stroke:none;stroke-width:1px;stroke-linecap:butt;stroke-linejoin:miter;stroke-opacity:1"
       x="361.03094"
       y="470.32773"
       id="text4967-7"
       sodipodi:linespacing="125%"><tspan
         sodipodi:role="line"
         id="tspan4969-5"
         x="361.03094"
         y="470.32773"
         style="fill:#ffffff">F</tspan></text>
  </g>
</svg>
